<?xml version="1.0" encoding="utf-8"?>
<svg xmlns="http://www.w3.org/2000/svg" width="24" height="24" viewBox="0 0 24 24">
    <path d="M 12.009766,8.9179688 A 2.8044574,2.8044574 0 0 0 10.728516,9.2265625 1.2943649,1.2943649 0 0 1 11.9375,10.517578 1.2943649,1.2943649 0 0 1 10.642578,11.810547 1.2943649,1.2943649 0 0 1 9.375,10.769531 2.8044574,2.8044574 0 0 0 9.2050781,11.720703 2.8044574,2.8044574 0 0 0 12.009766,14.525391 2.8044574,2.8044574 0 0 0 14.8125,11.720703 2.8044574,2.8044574 0 0 0 12.009766,8.9179688 Z m -0.05657,-3.4908762 c -5.4923124,0 -9.6815987,5.9194334 -9.6815987,5.9194334 l -0.2709,0.371752 0.2709,0.370652 c 0,0 4.1892863,5.919433 9.6815987,5.919433 5.492313,0 9.681599,-5.919433 9.681599,-5.919433 l 0.269874,-0.370652 -0.269874,-0.371752 c 0,0 -4.189286,-5.9194334 -9.681599,-5.9194334 z m 0,1.2076441 c 4.197806,0 7.727193,4.1390483 8.483071,5.0824413 -0.754848,0.942221 -4.284422,5.083542 -8.483071,5.083542 -4.1983209,0 -7.727822,-4.140864 -8.4830711,-5.083542 0.7562809,-0.94385 4.2855945,-5.0824413 8.4830711,-5.0824413 z m 0.0062,-0.8171943 c -3.0266961,0 -5.4908567,2.6411938 -5.4908572,5.8853376 0,3.244144 2.4641605,5.886437 5.4908572,5.886438 3.026696,0 5.491883,-2.642294 5.491883,-5.886438 0,-3.2441438 -2.465187,-5.8853376 -5.491883,-5.8853376 z m 0,1.0635624 c 2.490425,0 4.499609,2.1524304 4.499609,4.8217752 0,2.669345 -2.009184,4.822876 -4.499609,4.822876 -2.4904246,-1e-6 -4.498583,-2.153531 -4.498583,-4.822876 5e-7,-2.6693448 2.0081584,-4.8217752 4.498583,-4.8217752 z"/>
</svg>