<?xml version="1.0" encoding="utf-8"?>
<svg xmlns="http://www.w3.org/2000/svg" width="24" height="24" viewBox="0 0 24 24">
    <path d="M 5.3261719,3.8157381 Q 5.0107421,3.5 4.5708007,3.5 4.1308593,3.5 3.8154297,3.8157381 3.5,4.1314761 3.5,4.5718475 3.5,5.0122189 3.8154297,5.327957 L 5.8408202,7.3553275 Q 3.9980468,9.3494623 3.5166016,11.99169 3.8984376,14.085532 5.1269532,15.788856 6.3554686,17.49218 8.1650389,18.46432 9.9746088,19.436461 12,19.436461 q 2.407226,0 4.515623,-1.395895 l 2.141604,2.143696 Q 18.972656,20.5 19.420898,20.5 q 0.448241,0 0.755371,-0.307429 0.307129,-0.30743 0.307129,-0.75611 0,-0.448679 -0.315429,-0.764418 z M 12,17.309384 q -2.1748045,0 -4.0673829,-1.063538 l -0.1826172,0 0,-0.09971 Q 6.5380858,15.414956 5.6997069,14.343109 4.8613282,13.27126 4.5791016,11.99169 5.0439452,9.9144672 6.9199219,8.435484 L 8.3310547,9.8646139 Q 7.7499999,10.845064 7.7499999,11.99169 q 0,0.997068 0.4648438,1.894429 l 0.946289,-0.465299 q -0.3486329,-0.697946 -0.3486329,-1.42913 0,-0.714564 0.3154298,-1.34604 l 0.8300777,0.830889 q -0.083007,0.282503 -0.083007,0.515151 0,0.481917 0.2324227,0.947215 l 0.879882,-0.432062 0.498047,0.515151 -0.431641,0.864125 q 0.464844,0.23265 0.94629,0.23265 0.232423,0 0.53125,-0.06648 l 0.830078,0.83089 q -0.647461,0.29912 -1.361328,0.29912 -0.713867,0 -1.411132,-0.348973 l -0.481446,0.963833 q 0.896483,0.448681 1.892578,0.448681 1.145508,0 2.141601,-0.581623 l 1.012696,1.013686 q -1.527344,0.631475 -3.154297,0.631475 z m 4.233398,-5.766373 Q 16.067383,10.04741 15.004883,8.9921799 13.942382,7.9369502 12.464843,7.7707722 Z M 12,6.6906158 q 2.689453,0 4.806151,1.512219 2.116701,1.512219 2.631349,3.7888552 -0.232422,0.997068 -0.830079,1.927665 l 0.879884,0.880743 Q 20.234376,13.470674 20.5,11.99169 20.118163,9.8978495 18.881348,8.1945258 17.644531,6.4912024 15.834962,5.5273705 14.02539,4.5635386 12,4.5635386 q -1.195313,0 -2.374024,0.3655913 l 1.776367,1.7781037 Q 11.734376,6.6906155 12,6.6906155 Z"/>
</svg>
