<?xml version="1.0" encoding="UTF-8" standalone="no"?>
<svg
   xmlns:dc="http://purl.org/dc/elements/1.1/"
   xmlns:cc="http://creativecommons.org/ns#"
   xmlns:rdf="http://www.w3.org/1999/02/22-rdf-syntax-ns#"
   xmlns:svg="http://www.w3.org/2000/svg"
   xmlns="http://www.w3.org/2000/svg"
   xmlns:sodipodi="http://sodipodi.sourceforge.net/DTD/sodipodi-0.dtd"
   xmlns:inkscape="http://www.inkscape.org/namespaces/inkscape"
   width="24"
   height="24"
   viewBox="0 0 24 24"
   id="svg2"
   version="1.1"
   inkscape:version="0.91 r13725"
   sodipodi:docname="ic-email-outline_24px.svg">
  <metadata
     id="metadata12">
    <rdf:RDF>
      <cc:Work
         rdf:about="">
        <dc:format>image/svg+xml</dc:format>
        <dc:type
           rdf:resource="http://purl.org/dc/dcmitype/StillImage" />
        <dc:title></dc:title>
      </cc:Work>
    </rdf:RDF>
  </metadata>
  <defs
     id="defs10" />
  <sodipodi:namedview
     pagecolor="#ffffff"
     bordercolor="#666666"
     borderopacity="1"
     objecttolerance="10"
     gridtolerance="10"
     guidetolerance="10"
     inkscape:pageopacity="0"
     inkscape:pageshadow="2"
     inkscape:window-width="1920"
     inkscape:window-height="1137"
     id="namedview8"
     showgrid="false"
     inkscape:zoom="19.666667"
     inkscape:cx="-2.8430424"
     inkscape:cy="5.2768434"
     inkscape:window-x="-8"
     inkscape:window-y="-8"
     inkscape:window-maximized="1"
     inkscape:current-layer="svg2" />
  <path
     d="M0 0h24v24h-24z"
     fill="none"
     id="path6" />
  <g
     transform="matrix(0.01962011,0,0,0.01962011,2.2983083,2.5559901)"
     id="g6">
    <g
       id="g8">
      <g
         id="envelope">
        <g
           id="g11">
          <path
             inkscape:connector-curvature="0"
             d="m 989.9,132.1 c 0.1,-7.9 -2.7,-15.7 -8.7,-21.7 -6.4,-6.4 -28.05856,-9 -36.45856,-8.4 l -880.0839,0 c -8.4,-0.6 -39.45754,2.1 -45.85754,8.4 -6,6 -8.9,13.9 -8.7,21.7 0,0.2 -0.09973,9.69898 -0.1,9.79897 L 8.120205,846.82226 C 8.0751385,863.7222 36.858716,898.17149 53.758565,898.1 L 942.48185,894.34041 C 959.38169,894.26892 990.04543,861.8424 990,844.94246 l -1.87979,-699.2839 C 988.11994,145.55857 989.9,132.2 989.9,132.1 Z M 922.81508,144.30205 498.12021,505.63836 80.944511,148.06164 Z m -9.57672,703.87672 -820.737335,0 c -20.65959,0 -30.373566,1.2792 -30.6,-36.23939 L 58.141435,189.00103 476.3,549.5 c 0.7,0.9 1,1.9 1.8,2.7 6.1,6.1 14,8.8 22,8.7 7.9,0.2 15.9,-2.6 22,-8.7 0.8,-0.8 1.1,-1.8 1.8,-2.7 l 421.91815,-362.37877 -3.75959,621.05856 c -4.63599,19.93631 -13.9659,31.19365 -28.8202,39.99898 z"
             id="path13"
             sodipodi:nodetypes="csccccssssssccccccssccscscccc" />
        </g>
      </g>
    </g>
    <g
       id="g15" />
    <g
       id="g17" />
    <g
       id="g19" />
    <g
       id="g21" />
    <g
       id="g23" />
    <g
       id="g25" />
    <g
       id="g27" />
    <g
       id="g29" />
    <g
       id="g31" />
    <g
       id="g33" />
    <g
       id="g35" />
    <g
       id="g37" />
    <g
       id="g39" />
    <g
       id="g41" />
    <g
       id="g43" />
  </g>
</svg>
