<?xml version="1.0" encoding="utf-8"?>
<svg xmlns="http://www.w3.org/2000/svg" width="24" height="24" viewBox="0 0 24 24">
    <path d="M 18.6875,5.4257812 4.0683594,17.171875 4.71875,17.980469 19.337891,6.2363281 18.6875,5.4257812 Z m -6.734375,0.00195 c -5.4923128,0 -9.6816408,5.9179687 -9.6816408,5.9179687 l -0.2714844,0.373047 0.2714844,0.371094 c 0,0 1.0221126,1.431993 2.7050781,2.886718 L 5.9394529,14.203125 C 4.7057388,13.172783 3.8040237,12.132837 3.4707029,11.716797 3.9547043,11.112756 5.5755162,9.2031008 7.7792967,7.9042967 6.9498474,8.9340112 6.447266,10.268894 6.4472654,11.720703 c 0,0.642627 0.1129978,1.255621 0.2949219,1.835938 l 0.8691406,-0.697266 c -0.081632,-0.366191 -0.1367188,-0.743677 -0.1367187,-1.138672 1.1e-6,-2.6977488 2.0194543,-4.8398423 4.4804688,-4.8398437 0.824199,-1e-7 1.589981,0.2568132 2.25586,0.6777344 l 1.52539,-1.2265626 C 14.583179,5.7892606 13.308279,5.4277343 11.953125,5.4277343 Z m 6.636719,2.7441405 -0.958985,0.7714844 c 1.423808,1.1194668 2.439401,2.3175308 2.804688,2.7734378 -0.481775,0.601365 -2.096104,2.503478 -4.291016,3.802734 0.821065,-1.027344 1.31836,-2.355208 1.31836,-3.798828 -10e-7,-0.809987 -0.170305,-1.57517 -0.453125,-2.279297 l -0.84375,0.677735 c 0.163284,0.502529 0.269531,1.035431 0.269531,1.601562 0,2.697751 -2.019452,4.839844 -4.480469,4.839844 -0.986229,-1e-6 -1.89386,-0.355493 -2.6367189,-0.941406 l -1.5742187,1.263671 c 1.2631087,0.660046 2.6826776,1.125001 4.2089846,1.125 5.492312,0 9.681641,-5.917969 9.681641,-5.917968 l 0.269531,-0.371094 -0.269531,-0.373047 c 0,0 -1.158199,-1.6263021 -3.044922,-3.1738282 z"/>
</svg>