<?xml version="1.0" encoding="utf-8"?>
<svg xmlns="http://www.w3.org/2000/svg" width="24" height="24" viewBox="0 0 24 24">
  <path d="M 12,3.2207031 C 8.7205872,3.2209017 6.0509791,5.8905091 6.0507812,9.1699219 l 0,0.00195 c 0.00101,0.1915902 0.041103,0.3799443 0.060547,0.5703125 l -2.6113281,0 0,0.5000005 0,10.566406 17.005859,0 0,-11.0664065 -2.613281,0 c 0.01858,-0.1909694 0.0566,-0.3801595 0.05664,-0.5722656 C 17.949021,5.8905082 15.279414,3.2209004 12,3.2207031 Z m 0,1 c 2.739016,1.648e-4 4.949054,2.2102026 4.949219,4.9492188 -3.9e-5,0.1915729 -0.03445,0.3802581 -0.05664,0.5703125 l -9.7812499,0 C 7.0880847,9.5505319 7.0519354,9.3612628 7.0507812,9.1699219 l 0,-0.00195 c -3.6e-6,-6.482e-4 3.5e-6,-0.00131 0,-0.00195 C 7.0530941,6.4288474 9.2623167,4.2208689 12,4.2207031 Z m -7.5,6.5214849 15.005859,0 0,9.066406 -15.005859,0 0,-9.066406 z m 7,2.566406 0,3 1,0 0,-3 -1,0 z"/>
</svg>