<?xml version="1.0" encoding="utf-8"?>
<svg xmlns="http://www.w3.org/2000/svg" width="24" height="24" viewBox="0 0 24 24">
  <path d="M 12,3.5 C 9.5200151,3.5 7.5,5.5200151 7.5,8 c 0,2.479985 2.0200151,4.5 4.5,4.5 2.479985,0 4.5,-2.020015 4.5,-4.5 0,-2.4799849 -2.020015,-4.5 -4.5,-4.5 z m 0,1 c 1.940015,0 3.5,1.5599849 3.5,3.5 0,1.9400151 -1.559985,3.5 -3.5,3.5 C 10.059985,11.5 8.5,9.9400151 8.5,8 8.5,6.0599849 10.059985,4.5 12,4.5 Z m 0,9.40678 c -1.418645,0 -3.4466473,-0.0651 -5.1875,0.632282 C 5.9420737,14.887755 5.1437608,15.323058 4.5351562,15.884766 3.9265517,16.446473 3.5,17.16802 3.5,18 l 0,2.5 17,0 0,-2.5 c 0,-0.83198 -0.426552,-1.553527 -1.035156,-2.115234 C 18.856239,15.323058 18.057926,14.887755 17.1875,14.539062 15.446647,13.841677 13.418645,13.90678 12,13.90678 Z m 0,1 c 1.251355,0 3.222806,-0.0776 4.814453,0.560017 0.795824,0.318807 1.498448,0.716629 1.972656,1.154297 C 19.261317,17.058761 19.5,17.50198 19.5,18 l 0,1.5 -15,0 0,-1.5 c 0,-0.49802 0.2386827,-0.941239 0.7128906,-1.378906 0.474208,-0.437668 1.1768326,-0.83549 1.9726563,-1.154297 C 8.7771942,14.829183 10.748645,14.90678 12,14.90678 Z"/>
  <path d="M0 0h24v24h-24z" fill="none"/>
</svg>