<?xml version="1.0" encoding="utf-8"?>
<svg xmlns="http://www.w3.org/2000/svg" width="24" height="24" viewBox="0 0 24 24">
  <path
     d="m 12.589435,5.2940937 c 0,-0.2868078 -0.232504,-0.519354 -0.519354,-0.519354 -0.28685,0 -0.519354,0.2325462 -0.519354,0.519354 l 0,1.3535612 c 0,0.2868078 0.232504,0.519354 0.519354,0.519354 0.28685,0 0.519354,-0.2325462 0.519354,-0.519354 l 0,-1.3535612 z m 0,4.1548316 c 0,-0.2868078 -0.232504,-0.519354 -0.519354,-0.519354 -0.28685,0 -0.519354,0.2325462 -0.519354,0.519354 l 0,1.3535607 c 0,0.286808 0.232504,0.519354 0.519354,0.519354 0.28685,0 0.519354,-0.232546 0.519354,-0.519354 l 0,-1.3535607 z m 0,4.1548327 c 0,-0.286809 -0.232504,-0.519355 -0.519354,-0.519355 -0.28685,0 -0.519354,0.232546 -0.519354,0.519355 l 0,1.353559 c 0,0.286809 0.232504,0.519354 0.519354,0.519354 0.28685,0 0.519354,-0.232545 0.519354,-0.519354 l 0,-1.353559 z m -0.519354,3.635477 c -0.28685,0 -0.519354,0.232546 -0.519354,0.519354 l 0,1.353561 c 0,0.286808 0.232504,0.519354 0.519354,0.519354 0.28685,0 0.519354,-0.232546 0.519354,-0.519354 l 0,-1.353561 c 0,-0.286808 -0.232504,-0.519354 -0.519354,-0.519354 z M 3.8858521,19.98238 C 3.9306391,19.9943 3.9755971,20 4.0198039,20 4.2494005,20 4.4594685,19.846562 4.521334,19.614182 L 8.3969192,5.0593446 C 8.4707094,4.7821348 8.3058871,4.4976114 8.0286766,4.423822 7.7515075,4.3499045 7.4669848,4.5148955 7.3931954,4.792023 L 3.5176095,19.346857 c -0.07379,0.277209 0.091075,0.561733 0.3682426,0.635523 z M 20.120359,20 c 0.04421,0 0.0892,-0.0057 0.133951,-0.01762 0.277169,-0.07379 0.442033,-0.358314 0.368244,-0.635523 L 16.746926,4.7920655 c -0.07379,-0.2772106 -0.358395,-0.4421576 -0.635482,-0.368201 -0.277169,0.07379 -0.442032,0.3583119 -0.368242,0.6355226 l 3.875585,14.5548319 c 0.06191,0.23238 0.271933,0.385777 0.501572,0.385777 z M 5.855617,19.982753 c 0.044294,0.01168 0.088788,0.01724 0.1325805,0.01724 0.230177,0 0.4405369,-0.154187 0.5019033,-0.387231 L 10.322726,5.0579319 C 10.395769,4.7805557 10.230114,4.4964895 9.9527371,4.4234478 9.675403,4.3502854 9.3912953,4.5160589 9.3182534,4.7934359 L 5.4855872,19.348308 c -0.073001,0.277337 0.092611,0.561402 0.3700298,0.634445 z m 11.794487,-0.369988 c 0.06137,0.233086 0.271683,0.387231 0.501903,0.387231 0.04375,0 0.08829,-0.0056 0.13258,-0.01725 0.277377,-0.07304 0.44303,-0.357108 0.369988,-0.634486 L 14.82191,4.7934784 C 14.74887,4.5160597 14.46476,4.3502405 14.187425,4.4234902 c -0.277377,0.073043 -0.44303,0.357108 -0.369988,0.6344841 l 3.832667,14.5547907 z"/>
</svg>
