<?xml version="1.0" encoding="utf-8"?>
<svg xmlns="http://www.w3.org/2000/svg" width="300" height="180" viewBox="0 0 300 180">
<g>
	<rect id="rect1441" x="5.4" y="1.4" fill="#2B2B6F" width="289.1" height="47.2"/>
	<rect id="rect3194" x="5.4" y="131.9" fill="#E59925" width="289.1" height="47.2"/>
	<path id="path3214" fill="#2B2B6F" d="M55.3,59.3l0-2L85,57.9l0.5,41.7L110,58.2l14.7,0l-39.2,65H68.9c0,0-0.9-33.2-1.4-49.5
		C67.1,59.8,60.7,61,55.3,59.3z"/>
	<path id="path4089" fill="#2B2B6F" d="M109.5,123.2h16.9l21.1-65.6h-16.7L109.5,123.2z"/>
	<path id="path4964" fill="#2B2B6F" d="M192.7,72.3c0,0-9-5.6-13.9-5.6c-3.2,0-8.9,2.9-8.9,7.8c0,10.3,19,9.9,19,26.6
		c0,7.9-4.4,22.8-27.5,22.8c-15.7,0-22.1-6.9-22.1-6.9l5.4-9.8c0,0,6.8,5,16.2,5c6.9,0,11.4-2.7,11.4-6.8c0-8.4-20.6-12-20.6-26.6
		c0-11.8,10.9-22.9,27.5-22.9c13.6,0,20,7.9,20,7.9L192.7,72.3z"/>
	<path id="path5839" fill="#2B2B6F" d="M241.7,58.2l-18.9,0l-35.3,65h15.1l6.6-13.1h19.1l0,13.1h16.1L241.7,58.2z M225.8,76.3
		l1.9,23.3l-14.2,0L225.8,76.3z"/>
</g>
</svg>
