<?xml version="1.0" encoding="utf-8"?>
<svg xmlns="http://www.w3.org/2000/svg" width="300" height="180" viewBox="0 0 300 180">
<g>
	<g>
		<polygon fill="#0358A1" points="106.4,133.9 121.3,46.3 145.2,46.3 130.3,133.9 		"/>
		<path fill="#0358A1" d="M216.9,48.4c-4.7-1.8-12.2-3.7-21.4-3.7c-23.6,0-40.2,11.9-40.4,28.9C155,86.3,167,93.3,176.1,97.5
			c9.3,4.3,12.4,7,12.4,10.9c-0.1,5.9-7.4,8.6-14.3,8.6c-9.6,0-14.6-1.3-22.5-4.6l-3.1-1.4l-3.4,19.6c5.6,2.4,15.9,4.6,26.6,4.7
			c25.1,0,41.4-11.8,41.6-29.9c0.1-10-6.3-17.6-20.1-23.8c-8.4-4.1-13.5-6.8-13.4-10.9c0-3.6,4.3-7.5,13.7-7.5
			c7.8-0.1,13.5,1.6,17.9,3.4l2.1,1L216.9,48.4"/>
		<path fill="#0358A1" d="M278.2,46.4h-18.5c-5.7,0-10,1.6-12.5,7.3L211.8,134h25.1c0,0,4.1-10.8,5-13.2c2.7,0,27.1,0,30.6,0
			c0.7,3.1,2.9,13.1,2.9,13.1h22.2L278.2,46.4 M248.7,102.9c2-5.1,9.5-24.5,9.5-24.5c-0.1,0.2,2-5.1,3.2-8.4l1.6,7.6
			c0,0,4.6,20.9,5.5,25.3L248.7,102.9L248.7,102.9z"/>
		<path fill="#0358A1" d="M86.4,46.3L63,106.1L60.5,94c-4.4-14-17.9-29.2-33.1-36.8l21.4,76.7l25.3,0l37.6-87.5H86.4"/>
		<path fill="#FAA71C" d="M41.3,46.3H2.8l-0.3,1.8c30,7.3,49.8,24.8,58,45.9l-8.4-40.3C50.7,48.1,46.5,46.5,41.3,46.3"/>
	</g>
</g>
</svg>
