<?xml version="1.0" encoding="utf-8"?>
<svg xmlns="http://www.w3.org/2000/svg" width="24" height="24" viewBox="0 0 24 24">
    <path d="M 12,3.5 Q 9.9746094,3.5 8.1650391,4.60677 6.3554688,5.71354 5.1186523,7.66146 3.8818359,9.60937 3.5,12 3.8818359,14.39062 5.1186523,16.33854 6.3554688,18.28646 8.1650391,19.39323 9.9746094,20.5 12,20.5 q 2.025391,0 3.834961,-1.10677 1.80957,-1.10677 3.046387,-3.05469 Q 20.118164,14.39062 20.5,12 20.118164,9.60937 18.881348,7.66146 17.644531,5.71354 15.834961,4.60677 14.025391,3.5 12,3.5 Z M 7.9160156,16.51562 Q 6.6210938,15.74089 5.7412109,14.56771 4.8613281,13.39453 4.5625,12 4.8613281,10.58333 5.7495117,9.41016 6.6376953,8.23698 7.9160156,7.46224 6.6875,9.43229 6.6875,12 q 0,2.56771 1.2285156,4.51562 z M 12,14.83333 q -0.879883,0 -1.502441,-0.83007 Q 9.875,13.17318 9.875,12 9.875,10.82682 10.497559,9.99674 11.120117,9.16667 12,9.16667 q 0.879883,0 1.502441,0.83007 Q 14.125,10.82682 14.125,12 q 0,1.17318 -0.622559,2.00326 Q 12.879883,14.83333 12,14.83333 Z m 4.083984,1.68229 Q 17.3125,14.56771 17.3125,12 q 0,-2.56771 -1.228516,-4.53776 1.294922,0.77474 2.174805,1.94792 0.879883,1.17317 1.178711,2.58984 -0.298828,1.39453 -1.178711,2.57878 -0.879883,1.18424 -2.174805,1.93684 z"/>
</svg>
