<?xml version="1.0" encoding="utf-8"?>
<svg xmlns="http://www.w3.org/2000/svg" width="24" height="24" viewBox="0 0 24 24">
  <path d="m 18.652386,11.557931 c -0.302645,0 -0.400461,0.233008 -0.402279,0.53711 l 0,7.564559 -4.258026,-0.04494 0,-3.17782 c 0,-0.28121 -0.0095,-0.300674 -0.292862,-0.300674 l -2.753907,0 c -0.302888,0 -0.318181,0.01946 -0.322158,0.300674 l 0,3.222763 -4.2482607,0 0,-7.322372 c 0,-0.283341 -0.099391,-0.517578 -0.4022798,-0.517578 -0.283098,0 -0.4276916,0.234237 -0.4276916,0.517578 l 0,7.634766 c 0,0.283308 0.2344801,0.519528 0.5175781,0.519528 l 4.882812,0 c 0.283098,0 0.517579,-0.23622 0.517579,-0.519531 l 0,-2.996094 1.699218,0 0,2.996094 c 0,0.283311 0.234404,0.519531 0.53711,0.519531 l 4.863281,0 c 0.283128,0 0.517578,-0.23622 0.517578,-0.519531 l 0,-7.876953 c 0,-0.304107 -0.144564,-0.53711 -0.427692,-0.53711 z m -6.33012,-8.5859367 c -0.146451,0 -0.273564,0.061708 -0.38086,0.1679687 l -8.7773435,8.777343 c -0.2106032,0.21039 -0.224548,0.548452 0,0.742188 0.1951969,0.224974 0.5296312,-0.01432 0.7402344,-0.224716 l 8.4179691,-8.3984374 8.398437,8.4765624 c 0.08748,0.08751 0.203209,0.183062 0.362882,0.228559 0.141957,0.04045 0.291328,0.08366 0.398837,-0.0038 0.195379,-0.195806 0.209964,-0.549228 0,-0.761719 l -4.238281,-4.2558589 0,-2.9023437 c 0,-0.3020666 -0.2442,-0.5351563 -0.546875,-0.5351563 -0.283311,0 -0.517578,0.2331202 -0.517578,0.5351563 l 0,1.8378906 -3.496094,-3.515625 C 12.576481,3.0316319 12.449139,2.9719943 12.322266,2.9719943 Z"/>
</svg>