<?xml version="1.0" encoding="utf-8"?>
<svg xmlns="http://www.w3.org/2000/svg" width="24" height="24" viewBox="0 0 24 24">
  <path d="m 20.008055,15.749445 c -0.726116,-0.750382 -2.790082,-2.156095 -4.142859,-2.156095 -0.313327,0 -0.586863,0.07001 -0.810665,0.215105 -0.661467,0.425219 -1.188647,0.75538 -1.442291,0.75538 -0.139259,0 -0.288457,-0.125055 -0.616705,-0.410201 l -0.05475,-0.05 c -0.910142,-0.795405 -1.104103,-1.000511 -1.457212,-1.370697 l -0.08951,-0.09502 c -0.06466,-0.06503 -0.119357,-0.125064 -0.17407,-0.180098 -0.308347,-0.320162 -0.53215,-0.550275 -1.3229233,-1.450738 l -0.03486,-0.04003 C 9.484241,10.536841 9.2355671,10.256694 9.2206464,10.051598 9.2056968,9.8514917 9.3797953,9.5263297 9.822429,8.9210219 10.35956,8.1906486 10.37945,7.2901951 9.8870837,6.2446593 9.4941913,5.4192372 8.8526154,4.6288407 8.2856436,3.9334833 L 8.2359393,3.8734314 C 7.7485514,3.2731322 7.1815795,2.9729779 6.5499539,2.9729779 c -0.7012496,0 -1.2831424,0.3801949 -1.59149,0.5802914 -0.024852,0.015037 -0.049704,0.035054 -0.074651,0.049995 C 4.1925039,4.0434827 3.6901952,4.6487909 3.5012046,5.2641077 3.2177187,6.1895781 3.028728,7.3901858 4.3864744,9.8864496 c 1.1737264,2.1611044 2.2380365,3.6118424 3.9289923,5.3577254 1.591499,1.640836 2.2977183,2.171103 3.8792673,3.321687 1.760589,1.280657 3.451545,2.016031 4.635222,2.016031 1.099122,0 1.964501,0 3.197907,-1.495763 1.293089,-1.570804 0.755959,-2.53129 -0.01989,-3.336695 z m -0.571944,2.796418 c -0.994679,1.210617 -1.566622,1.210617 -2.6011,1.210617 -1.009597,0 -2.576225,-0.700357 -4.187617,-1.865949 C 11.105638,16.769964 10.41931,16.254695 8.8725733,14.658884 7.2363209,12.973034 6.2068229,11.567321 5.0728886,9.4812579 3.8742911,7.275139 4.0085784,6.3096437 4.2522723,5.514238 4.3815797,5.0890282 4.7695114,4.6337923 5.2966912,4.3036216 c 0.024852,-0.015037 0.049704,-0.035054 0.079603,-0.049995 0.2635947,-0.1700801 0.7012497,-0.4552263 1.1786967,-0.4552263 0.3978725,0 0.750992,0.2000965 1.0891813,0.6153073 l 0.049704,0.060052 C 8.9620977,6.0345546 9.9518037,7.415251 9.2057916,8.43577 8.6786118,9.1511352 8.4001057,9.6363879 8.4448586,10.136639 c 0.039801,0.485242 0.3630604,0.850428 0.8504578,1.400713 l 0.03485,0.04003 c 0.8007246,0.910462 1.0294976,1.150583 1.3477966,1.475754 0.05475,0.05498 0.109415,0.115057 0.174069,0.180089 l 0.0895,0.09501 c 0.368031,0.385195 0.571943,0.5953 1.506946,1.420722 l 0.05475,0.05 c 0.397875,0.350179 0.69131,0.605308 1.119025,0.605308 0.442635,0 0.930022,-0.280136 1.855084,-0.875445 0.09445,-0.06006 0.228773,-0.09501 0.397873,-0.09501 1.07923,0 2.939286,1.240633 3.590805,1.915973 0.596809,0.610317 0.895216,1.070543 -0.02984,2.19612 z"/>
</svg>