<?xml version="1.0" encoding="utf-8"?>
<svg xmlns="http://www.w3.org/2000/svg"
   width="24"
   height="24"
   viewBox="0 0 24 24">
  <g
     transform="matrix(0.86692453,0,0,0.86692453,-14.690872,0.05276313)"
     id="g4">
    <path
       d="m 28.335938,3.8027344 a 0.57680915,0.57680915 0 0 0 -0.56836,0.5859375 l 0.0293,18.3925781 a 0.57680915,0.57680915 0 1 0 1.152344,-0.002 L 28.921875,4.3867188 A 0.57680915,0.57680915 0 0 0 28.335938,3.8027344 Z"
       id="path6"
       inkscape:connector-curvature="0" />
    <path
       d="m 31.804688,3.7480469 c -2.895146,0 -1.400356,0.00586 -3.453126,0.00586 a 0.57714845,0.57714845 0 1 0 0,1.1542969 c 2.054807,0 0.559425,-0.00586 3.453126,-0.00586 2.627583,2e-7 4.664062,1.7963957 4.664062,3.9101562 0,2.149379 -1.805619,3.892578 -4.435547,3.892578 -2.891951,0 -4.885596,-0.01953 -7.496094,-0.01953 a 0.5771485,0.5771485 0 1 0 0,1.154297 c 2.605013,0 4.599201,0.01758 7.496094,0.01758 3.158918,0 5.589844,-2.238578 5.589844,-5.044922 0,-2.8419617 -2.657095,-5.0644528 -5.818359,-5.0644531 z"
       id="path4142"
       inkscape:connector-curvature="0" />
    <path
       d="m 32.322266,16.287109 -7.802735,0.01758 a 0.57680915,0.57680915 0 1 0 0.002,1.152343 l 7.804688,-0.01758 a 0.57680915,0.57680915 0 1 0 -0.0039,-1.152344 z"
       id="path4165"
       inkscape:connector-curvature="0" />
  </g>
</svg>
