<svg xmlns="http://www.w3.org/2000/svg" viewBox="0 0 1758 367">
<style>.a{fill:#DF0024;}.b{fill:#0091D5;}</style>
<path d="M138 17.5C85.4 25.9 31.9 68.3 10.9 118.4 0.5 143.3-1.9 165.5 2.6 195c5.1 33.5 19.9 66.2 42.7 94.5 8.3 10.3 27 28.4 37 35.9 7.7 5.7 28.4 18.6 29.9 18.6 0.5 0-2.3-6.3-6.2-14 -5.3-10.5-7.7-14.3-9.8-15.4 -8.9-4.6-30.5-24.1-40.1-36.1 -25.2-31.4-39-71.3-39.1-112.2 0-34.4 12.5-64.2 38.4-91.1 22.1-22.9 49.9-39 79.1-45.8 11.6-2.7 32.9-2.5 50 0.5 41.2 7.2 70.7 22.2 98.4 49.8 7.6 7.7 12.5 11.6 18.3 14.8 4.3 2.4 7.5 3.9 7.2 3.2 -1.8-3.1-15.6-18.7-24.3-27.5 -22.5-22.8-44.4-36.8-70.2-45C188.8 17.1 159.2 14.2 138 17.5z" class="a"/>
<path d="M160.5 48.6c-18 2.7-31.1 6.6-46 13.9 -34.8 16.9-60.3 47.5-70.1 84 -3.6 13.7-4.5 36.7-1.9 51.2C46.9 222 57.9 244 75 262.3c6.8 7.3 19.7 18.4 20.4 17.6 0.2-0.2-0.1-3.1-0.6-6.4s-0.7-10.5-0.4-16c1.1-19.3 7.4-36 19.7-52l4.9-6.4 -2.5-8.8c-6.5-22.3-4.8-44.2 5-65 5.5-11.6 9.1-16.8 18.4-26.6 16.6-17.4 38.4-27.8 64.6-30.8 17.5-2.1 37 1.1 53.3 8.6 9 4.2 7.9 2.6-3.1-4.8 -14.9-9.9-32.2-17.2-50.7-21.2C196.7 48.9 179 46.3 160.5 48.6z" class="b"/>
<path d="M970 206v119l59.3 0.2 59.2 0.3 0.3 20.2 0.2 20.3h22 22v-44 -44h-6.5 -6.5v-95.5V87h-32.5H1055v95.5V278h-10 -10v-95.5V87h-32.5H970V206z" class="b"/>
<path d="M1151 206v119h56.5 56.5v-23.5V278h-24 -24v-26.5V225h20.5 20.5v-22.5V180h-20.5H1216v-23 -23h22 22v-23.5V87h-54.5H1151V206z" class="b"/>
<path d="M1284 206v119h32 32l0.2-49.7 0.3-49.8 10.3-0.3 10.2-0.3V275v50h32 32V206 87h-32 -32v42.5V172h-10.5H1348v-42.5V87h-32 -32V206L1284 206z" class="b"/>
<path d="M1449 110.5V134h19.5 19.5v95.5V325h32.5 32.5v-95.5V134h19.5 19.5v-23.5V87h-71.5H1449V110.5z" class="b"/>
<path d="M1607 206v119h32.5 32.5v-47.9 -47.8l18.3-0.6c20.2-0.6 28.4-2.3 39-8 12.5-6.6 16.2-14.9 17.9-39.9 1.2-18.2-0.2-53-2.6-61.6 -4-14.4-14-23.6-30.6-28.1 -12.4-3.3-25-4.1-67-4.1h-40L1607 206 1607 206zM1687.1 129.6c1.7 0.8 3.7 3 4.4 4.9 3.4 8 2.7 43.2-0.9 48.8 -2.2 3.2-5.9 4.8-12.8 5.4l-5.8 0.6V158v-31.3l6 0.6C1681.3 127.7 1685.4 128.7 1687.1 129.6L1687.1 129.6z" class="b"/>
<path d="M162 239v91h24.5H211v-73 -73h8 8v73 73h24.5H276v-91 -91h-57 -57V239z" class="a"/>
<path d="M303.9 218.2c0 51.7-0.4 71.4-1.3 74.3 -0.9 3.2-1.8 4.2-4.6 5.2 -1.9 0.7-5 1.2-6.7 1.2L288 299v15.5V330h10.3c15.7 0 31.9-1.7 38.1-4.1 6.6-2.4 11.8-7.9 14.1-14.9 2.7-8.1 3.5-25.5 3.5-77.3V184h7.5 7.5v73 73h24.5H418v-91 -91h-57 -57L303.9 218.2 303.9 218.2z" class="a"/>
<path d="M452.5 149.2c-0.2 0.7-5.8 40.7-12.4 88.8 -6.7 48.1-12.3 88.5-12.6 89.7L427 330h25.8 25.8l1.5-16.2 1.4-16.3 9.1-0.3 9.1-0.3 0.6 6.8c0.4 3.7 1 11.2 1.3 16.5l0.7 9.8h25.4 25.5l-0.5-2.2c-0.3-1.3-6.7-42.2-14.3-91.1L524.5 148h-35.8C461 148 452.8 148.3 452.5 149.2L452.5 149.2zM493 212.6c1.1 12 2.7 27.5 3.5 34.4s1.5 13.7 1.5 15.2v2.8h-8.5c-6.1 0-8.5-0.3-8.5-1.3 0-2.7 4.1-36.9 6.5-53.9 1.4-10 2.5-18.6 2.5-19.1 0-0.6 0.2-0.8 0.5-0.6C490.7 190.4 491.9 200.5 493 212.6z" class="a"/>
<path d="M554 166v18h14.5H583v73 73h25 25v-73 -73h14.5H662v-18 -18h-54 -54V166z" class="a"/>
<path d="M674 239v91h43 43v-18 -18h-18 -18v-20.5V253h15.5H755v-17 -17h-15.5H724v-17.5V184h16.5H757v-18 -18h-41.5H674V239z" class="a"/>
<path d="M769.5 149.7c3.5 8.3 3.8 10.2 4.4 39.3l0.6 29.5 2.7 4.6c4.3 7.4 10.9 11.1 23.3 13.3l7 1.3 -6 1.2c-14.2 3.1-22.7 8.4-26.1 16.3 -1.6 3.7-1.9 8.4-2.4 34.8 -0.6 29.9-1.1 34.8-4.3 38.8 -0.7 0.9 3.4 1.2 20 1.2h20.9l1.9-3.2c1.8-3.1 2-5.8 2.5-35.5l0.5-32.3 3.1-3.1c2.3-2.3 4.4-3.3 7.8-3.6l4.6-0.6v39.2V330h25 25v-39 -39h3.8c4 0 9.5 2.8 11 5.7 0.6 1 1.2 15.7 1.4 32.8 0.3 28.4 0.5 31.3 2.3 35l2 4 20.8 0.3c11.4 0.1 20.7 0.1 20.7 0 0-0.2-1-2.8-2.2-5.8 -1.9-5.1-2.2-7.9-2.7-36.1l-0.6-30.6 -3-4.8c-3.7-6-11.4-10.5-22.3-13l-7.7-1.9 7.4-1.3c12.4-2.3 20-7.4 23.8-15.8 1.5-3.5 1.8-8.1 2.3-33.5 0.5-27.5 0.7-29.8 2.7-34.3l2.2-4.7h-20.8 -20.9l-1.8 3.7c-1.7 3.4-2 7.2-2.4 33.8 -0.3 20.9-0.9 30.6-1.7 32.1 -1.6 2.7-7.2 5.4-11.2 5.4H880v-37.5V148h-25 -25v37.5V223h-3.2c-3.9 0-9.1-3-11-6.2 -1-1.7-1.4-10.2-1.8-32.8 -0.4-27.1-0.7-30.9-2.3-33.3L810 148h-20.6C770.2 148 768.8 148.1 769.5 149.7L769.5 149.7z" class="a"/>
</svg>