<svg xmlns="http://www.w3.org/2000/svg" viewBox="-10 -10 120 55">
  <sodipodi:namedview
     pagecolor="#ffffff"
     bordercolor="#666666"
     borderopacity="1"
     objecttolerance="10"
     gridtolerance="10"
     guidetolerance="10"
     inkscape:pageopacity="0"
     inkscape:pageshadow="2"
     inkscape:window-width="1680"
     inkscape:window-height="987"
     id="namedview25"
     showgrid="false"
     inkscape:zoom="5.5625734"
     inkscape:cx="61.943939"
     inkscape:cy="52.813114"
     inkscape:window-x="-8"
     inkscape:window-y="-8"
     inkscape:window-maximized="1"
     inkscape:current-layer="svg2" />
  <defs
     id="defs4">
    <filter
       id="shadow"
       x="-50%"
       y="-50%"
       width="200%"
       height="200%">
      <feOffset
         result="offOut"
         in="SourceAlpha"
         dx="0"
         dy="0"
         id="feOffset7" />
      <feGaussianBlur
         result="blurOut"
         in="offOut"
         stdDeviation="3"
         id="feGaussianBlur9" />
      <feComponentTransfer
         in="blurOut"
         result="opacityOut"
         id="feComponentTransfer11">
        <feFuncA
           type="linear"
           slope="0.5"
           id="feFuncA13" />
      </feComponentTransfer>
      <feBlend
         in="SourceGraphic"
         in2="opacityOut"
         mode="normal"
         id="feBlend15" />
    </filter>
  </defs>
  <rect
     style="fill:#49b7cd;fill-opacity:0;stroke:none"
     id="rect4056"
     width="14.136648"
     height="14.136648"
     x="-1.1469805"
     y="-2.3533003"
     ry="0.42838326" />
  <path
     style="fill:#bfe4eb;fill-opacity:0;stroke:none"
     d="m 12.989667,-2.3533088 5.997365,6.854132 0,11.5663498 -5.997365,-4.283833 z"
     id="path4058"
     inkscape:connector-curvature="0" />
  <path
     style="fill:#9dd5e2;fill-opacity:0;stroke:none"
     d="m 7.4206841,16.067173 -8.567665,-4.283833 14.1366479,0 5.997365,4.283833 z"
     id="path4060"
     inkscape:connector-curvature="0" />
  <path
     style="fill:#f9cb93;fill-opacity:1;stroke:none"
     d="m -1.1469809,22.06451 8.567665,-4.283779 11.5663479,0 -5.997365,4.283779 z"
     id="path4062"
     inkscape:connector-curvature="0" />
  <rect
     style="fill:#ee750f;fill-opacity:0;stroke:none"
     id="rect4064"
     width="14.136648"
     height="14.136648"
     x="-1.1469805"
     y="22.064575"
     ry="0.42838326" />
  <path
     style="fill:#fab253;fill-opacity:1;stroke:none"
     d="m 18.987032,17.780731 0,11.566327 -5.997365,6.854132 0,-14.13668 z"
     id="path4066"
     inkscape:connector-curvature="0" />
  <rect
     style="fill:#f8cc0c;fill-opacity:1;stroke:none"
     id="rect4068"
     width="14.136648"
     height="14.136648"
     x="26.697933"
     y="22.064575" />
  <rect
     style="fill:#ee750f;fill-opacity:1;stroke:none"
     id="rect4070"
     width="14.136648"
     height="14.136648"
     x="-1.1469805"
     y="22.064575" />
  <rect
     style="fill:#4ab7cd;fill-opacity:1;fill-rule:nonzero;stroke:none"
     id="rect4072"
     width="14.136648"
     height="14.136648"
     x="-1.1469805"
     y="-2.3533003" />
  <path
     style="fill:#bfe4eb;fill-opacity:1;stroke:none"
     d="m 12.989667,-2.3533088 5.997365,6.854132 0,11.5663498 -5.997365,-4.283833 z"
     id="path4074"
     inkscape:connector-curvature="0" />
  <path
     style="fill:#9cd4e1;fill-opacity:1;stroke:none"
     d="m -1.1469809,11.78334 14.1366479,0 5.997365,4.283833 -11.5663479,0 z"
     id="path4076"
     inkscape:connector-curvature="0" />
  <rect
     style="fill:#0270b0;fill-opacity:1;stroke:none"
     id="rect4078"
     width="14.136648"
     height="14.136648"
     x="26.697933"
     y="-2.3533003" />
  <path
     style="fill:#6a9dcb;fill-opacity:1;stroke:none"
     d="m 26.69793,-2.3533088 -5.997365,6.854132 0,11.5663498 5.997365,-4.283833 z"
     id="path4080"
     inkscape:connector-curvature="0" />
  <path
     style="fill:#abc3dc;fill-opacity:1;stroke:none"
     d="m 32.266913,16.067173 8.567665,-4.283833 -14.136648,0 -5.997365,4.283833 z"
     id="path4082"
     inkscape:connector-curvature="0" />
  <path
     style="fill:#f9e49f;fill-opacity:1;stroke:none"
     d="m 32.266913,17.780731 8.567665,4.283779 -14.136648,0 -5.997365,-4.283779 z"
     id="path4084"
     inkscape:connector-curvature="0" />
  <path
     style="fill:#fada6c;fill-opacity:1;stroke:none"
     d="m 20.700565,17.780731 0,11.566327 5.997365,6.854132 0,-14.13668 z"
     id="path4086"
     inkscape:connector-curvature="0" />
  <rect
     style="fill:#656665;fill-opacity:1;stroke:none"
     id="rect4088"
     width="55.796921"
     height="0.42838326"
     x="43.619068"
     y="-2.3533003" />
  <rect
     style="fill:#656665;fill-opacity:1;stroke:none"
     id="rect4090"
     width="33.199699"
     height="0.42838326"
     x="43.619068"
     y="35.772774" />
  <g
     transform="matrix(0.48013208,0,0,0.48013208,-5.2581018,-463.24118)"
     style="font-style:normal;font-weight:normal;font-size:22.97465515px;line-height:125%;font-family:Sans;letter-spacing:0px;word-spacing:0px;fill:#000000;fill-opacity:1;stroke:none"
     id="text3037" />
  <g
     transform="matrix(0.48013208,0,0,0.48013208,-5.2581018,-463.24118)"
     style="font-style:normal;font-variant:normal;font-weight:normal;font-stretch:normal;font-size:22.97465515px;line-height:125%;font-family:'Nokia Sans S60';-inkscape-font-specification:'Nokia Sans S60';text-align:start;letter-spacing:0px;word-spacing:0px;writing-mode:lr-tb;text-anchor:start;fill:#000000;fill-opacity:1;stroke:none"
     id="text3041" />
  <g
     transform="matrix(0.48013208,0,0,0.48013208,-5.2581018,-463.24118)"
     style="font-style:normal;font-variant:normal;font-weight:normal;font-stretch:normal;font-size:22.97465515px;line-height:125%;font-family:'Nokia Sans S60';-inkscape-font-specification:'Nokia Sans S60';text-align:start;letter-spacing:0px;word-spacing:0px;writing-mode:lr-tb;text-anchor:start;fill:#000000;fill-opacity:1;stroke:none"
     id="text3045">
    <path
       id="path5390"
       d="m 155.21791,1025.609 -2.69234,0 0,-14.2021 c 0,-0.6432 0.2281,-1.1405 0.6843,-1.492 0.3515,-0.2543 0.86006,-0.3814 1.52567,-0.3815 l 4.24043,0 c 1.53313,10e-5 2.72973,0.4413 3.58979,1.3238 0.86005,0.89 1.29007,2.3932 1.29009,4.5097 -2e-5,2.1389 -0.3216,3.6683 -0.96476,4.5882 -0.81519,1.1666 -2.23989,1.75 -4.27409,1.75 l -3.39909,0 z m 3.05132,-5.9681 c 1.06946,10e-5 1.83602,-0.3776 2.29971,-1.133 0.33654,-0.4861 0.50481,-1.4583 0.50482,-2.9167 -1e-5,-1.2414 -0.10845,-2.1127 -0.32533,-2.6138 -0.39638,-0.9199 -1.1779,-1.3798 -2.34458,-1.3798 l -2.63625,0 c -0.11219,0 -0.23558,0.052 -0.3702,0.157 -0.11966,0.1272 -0.17949,0.2655 -0.17949,0.4151 l 0,7.4712 z m -13.92165,2.0642 0,-10.1075 -4.57698,0 0,-2.0642 11.83509,0 0,2.0642 -4.57698,0 0,10.1075 z m -8.17799,0 0,-5.2389 -5.81097,0 0,5.2389 -2.69234,0 0,-12.1717 2.69234,0 0,4.8687 5.81097,0 0,-4.8687 2.68112,0 0,12.1717 z m -17.14125,0 c -1.75002,0 -2.99149,-0.5123 -3.7244,-1.5369 -0.58335,-0.8301 -0.87502,-2.3072 -0.87502,-4.4311 0,-2.5802 0.48238,-4.2816 1.44714,-5.1043 0.88996,-0.7703 2.40815,-1.1554 4.55454,-1.1554 1.85472,0 3.19341,0.2617 4.01608,0.7852 1.15171,0.718 1.72758,2.0342 1.72759,3.9488 -1e-5,0.8451 -0.19072,1.4583 -0.57212,1.8398 -0.30664,0.3066 -0.74415,0.4599 -1.31252,0.4599 l -7.07862,0 c 0,0.688 0.0524,1.249 0.15706,1.6827 0.26175,0.9648 1.08441,1.4472 2.46798,1.4471 l 5.94559,0 0,2.0642 z m 3.76928,-7.2581 c 0.39637,0 0.59455,-0.2393 0.59456,-0.718 -1e-5,-0.688 -0.26176,-1.2302 -0.78527,-1.6266 -0.48612,-0.3665 -1.24895,-0.5497 -2.28849,-0.5497 -1.22651,0 -2.07909,0.2655 -2.55772,0.7965 -0.33655,0.3889 -0.51978,1.0882 -0.54969,2.0978 z m -19.81115,7.2581 c -0.58334,0 -1.02833,-0.1309 -1.33495,-0.3927 -0.33655,-0.2916 -0.50482,-0.7291 -0.50482,-1.3125 l 0,-10.4665 2.69235,0 0,9.2325 c -1e-5,0.3366 0.0598,0.5647 0.17948,0.6843 0.11966,0.1272 0.36272,0.1908 0.72918,0.1907 l 4.87987,0 0,-10.1075 2.68113,0 0,10.1075 1.72758,0 0,2.0642 z m 112.77966,-19.4238 0.0897,-8.66036 c -1e-5,-0.21687 -0.0449,-0.32531 -0.13462,-0.32532 -0.0748,10e-6 -0.18324,0.10845 -0.32532,0.32532 l -5.35103,7.83026 c -0.42629,0.6431 -1.00589,0.9647 -1.73881,0.9647 -1.18164,0 -1.77246,-0.5721 -1.77245,-1.7163 l 0,-10.58992 2.69234,0 -0.1234,8.66037 c -1e-5,0.20941 0.0636,0.31411 0.19071,0.3141 0.0748,10e-6 0.17948,-0.10469 0.3141,-0.3141 l 5.42956,-7.97607 c 0.38141,-0.55341 0.93109,-0.83012 1.64906,-0.83014 1.18163,2e-5 1.77245,0.62075 1.77246,1.86221 l 0,10.45525 z m -3.24203,-14.38158 c 0.69551,10e-6 1.2265,-0.18322 1.59297,-0.54969 0.26174,-0.26174 0.45245,-0.59081 0.57212,-0.98719 l 2.08656,0 c -0.30663,1.03955 -0.7404,1.8136 -1.30129,2.32214 -0.65814,0.59083 -1.64159,0.88624 -2.95036,0.88623 -1.30131,1e-5 -2.28102,-0.2954 -2.93914,-0.88623 -0.56091,-0.50854 -0.99468,-1.28259 -1.3013,-2.32214 l 2.08656,0 c 0.11966,0.39638 0.31037,0.72545 0.57213,0.98719 0.36645,0.36647 0.8937,0.5497 1.58175,0.54969 z m -20.52911,2.20996 0,4.61064 5.48565,0 c 0.9797,0 1.73879,0.30663 2.27727,0.91988 0.53098,0.61326 0.79647,1.60793 0.79649,2.98401 -2e-5,1.45839 -0.30291,2.46429 -0.90867,3.01769 -0.47865,0.4263 -1.26018,0.6394 -2.34458,0.6394 l -6.18117,0 c -0.5983,0 -1.05076,-0.1458 -1.35739,-0.4375 -0.30663,-0.2917 -0.45994,-0.7666 -0.45994,-1.4247 l 0,-10.30942 z m 10.00654,0 2.69234,0 0,12.17162 -2.69234,0 z m -10.00654,9.25493 c 0,0.33654 0.0523,0.55716 0.15705,0.66189 0.11966,0.1271 0.31785,0.1907 0.59456,0.1907 l 3.51127,0 c 0.56837,0 0.96848,-0.1309 1.20033,-0.39265 0.21688,-0.2468 0.32532,-0.69926 0.32533,-1.35739 -1e-5,-0.62821 -0.10845,-1.05824 -0.32533,-1.29008 -0.23185,-0.25427 -0.59831,-0.38141 -1.09937,-0.38142 l -4.36384,0 z m -7.20202,2.91669 0,-5.23884 -5.81097,0 0,5.23884 -2.69235,0 0,-12.17162 2.69235,0 0,4.86865 5.81097,0 0,-4.86865 2.68112,0 0,12.17162 z m -16.6813,0 0,-10.10749 -4.57699,0 0,-2.06413 11.83509,0 0,2.06413 -4.57698,0 0,10.10749 z m -12.30625,0 c -1.75003,0 -2.99149,-0.5123 -3.72441,-1.5369 -0.58334,-0.8301 -0.87501,-2.30715 -0.87501,-4.43111 0,-2.58016 0.48238,-4.28157 1.44714,-5.10424 0.88996,-0.77029 2.40814,-1.15545 4.55454,-1.15546 1.85472,10e-6 3.19341,0.26177 4.01608,0.78527 1.15171,0.71796 1.72757,2.03422 1.72759,3.94876 -2e-5,0.84511 -0.19072,1.45836 -0.57213,1.83977 -0.30664,0.30664 -0.74414,0.45995 -1.31251,0.45994 l -7.07862,0 c 0,0.68805 0.0523,1.24896 0.15705,1.68272 0.26175,0.96476 1.08441,1.44715 2.46798,1.44715 l 5.94559,0 0,2.0641 z m 3.76928,-7.2581 c 0.39636,10e-6 0.59455,-0.23931 0.59456,-0.71795 -1e-5,-0.68804 -0.26177,-1.23025 -0.78527,-1.62663 -0.48612,-0.36644 -1.24895,-0.54967 -2.28849,-0.54968 -1.22652,1e-5 -2.07909,0.2655 -2.55772,0.79648 -0.33655,0.3889 -0.51978,1.08816 -0.54969,2.09778 z m -12.56427,7.2581 0,-5.10422 -5.37346,0 c -1.16669,0 -2.00057,-0.33654 -2.50164,-1.00963 -0.38889,-0.50107 -0.58334,-1.31251 -0.58334,-2.43433 l 0,-3.62344 2.69234,0 0,3.05132 c 0,0.6731 0.0785,1.12556 0.23558,1.35739 0.25428,0.39638 0.74413,0.59457 1.46957,0.59456 l 4.06095,0 0,-5.00327 2.69235,0 0,12.17162 z m -15.61558,0 c -1.57802,0 -2.78583,-0.4973 -3.62345,-1.492 -0.74039,-0.875 -1.11059,-2.35205 -1.11059,-4.43114 0,-2.34831 0.45994,-3.99737 1.37983,-4.94718 0.875,-0.86752 2.11647,-1.30129 3.7244,-1.3013 l 5.21642,0 0,2.06413 -4.34141,0 c -1.62288,10e-6 -2.62129,0.64318 -2.99523,1.92951 -0.13462,0.47117 -0.20193,1.23774 -0.20192,2.29971 -1e-5,1.15921 0.13087,2.00056 0.39263,2.52407 0.44124,0.86006 1.45835,1.2901 3.05132,1.2901 l 4.36384,0 0,2.0641 z m -9.65878,-12.17162 c 1.0844,10e-6 1.92576,0.31412 2.52407,0.94232 0.59829,0.62074 0.89743,1.57802 0.89745,2.87183 l 0,6.31577 c -2e-5,0.718 -0.16081,1.2377 -0.48238,1.5593 -0.3216,0.3216 -0.8825,0.4824 -1.68272,0.4824 l -5.81097,0 c -1.00963,0 -1.74628,-0.1982 -2.20996,-0.5945 -0.703,-0.6133 -1.0545,-1.71641 -1.0545,-3.30939 0,-1.37608 0.34402,-2.36327 1.03206,-2.96157 0.53847,-0.47863 1.2826,-0.71795 2.2324,-0.71796 l 5.28372,0 0,-0.85258 c -10e-6,-0.4861 -0.11593,-0.86752 -0.34776,-1.14424 -0.26924,-0.35149 -0.70301,-0.52724 -1.3013,-0.52725 l -6.00168,0 0,-2.06413 z m -3.74685,6.65233 c -0.44872,0 -0.77779,0.13836 -0.98719,0.41507 -0.20193,0.2468 -0.30289,0.68431 -0.30289,1.31252 0,0.64317 0.1234,1.09563 0.3702,1.35738 0.24679,0.24682 0.53846,0.37022 0.87501,0.37022 l 3.73563,0 c 0.2767,0 0.47863,-0.049 0.60577,-0.1459 0.11965,-0.10465 0.17948,-0.27292 0.17949,-0.50477 l 0,-2.80452 z m -13.89921,9.42319 -2.69235,0 0,-14.2021 c 0,-0.64316 0.2281,-1.14049 0.68431,-1.49201 0.3515,-0.25426 0.86005,-0.3814 1.52566,-0.38141 l 4.24044,0 c 1.53313,10e-6 2.72972,0.44126 3.58979,1.32373 0.86004,0.88998 1.29007,2.39321 1.29008,4.50968 -1e-5,2.13892 -0.3216,3.66832 -0.96476,4.58821 -0.81519,1.1667 -2.23989,1.75 -4.27409,1.75 l -3.39908,0 z m 3.05132,-5.968 c 1.06945,0 1.83602,-0.37769 2.29971,-1.13305 0.33653,-0.48611 0.5048,-1.45834 0.50481,-2.9167 -10e-6,-1.24146 -0.10845,-2.11273 -0.32532,-2.61382 -0.39638,-0.91987 -1.17791,-1.37981 -2.34459,-1.37982 l -2.63625,0 c -0.11218,10e-6 -0.23558,0.0524 -0.37019,0.15705 -0.11967,0.12715 -0.1795,0.26551 -0.17949,0.41507 l 0,7.47127 z m 109.58409,-17.10056 0.0897,-8.66037 c -1e-5,-0.21687 -0.0449,-0.32532 -0.13462,-0.32532 -0.0748,0 -0.18324,0.10845 -0.32532,0.32532 l -5.35103,7.83023 c -0.4263,0.64317 -1.0059,0.96476 -1.73881,0.96476 -1.18164,0 -1.77246,-0.57213 -1.77246,-1.71637 l 0,-10.58988 2.69234,0 -0.12339,8.66036 c -10e-6,0.20941 0.0636,0.31411 0.1907,0.31411 0.0748,0 0.17949,-0.1047 0.31411,-0.31411 l 5.42956,-7.97606 c 0.3814,-0.55341 0.93109,-0.83013 1.64906,-0.83014 1.18162,10e-6 1.77244,0.62075 1.77246,1.86221 l 0,10.45526 z m -3.24203,-14.3816 c 0.69552,2e-5 1.22651,-0.18321 1.59297,-0.54968 0.26175,-0.26174 0.45246,-0.59081 0.57213,-0.9872 l 2.08656,0 c -0.30664,1.03956 -0.7404,1.81361 -1.3013,2.32215 -0.65813,0.59083 -1.64159,0.88624 -2.95036,0.88623 -1.3013,1e-5 -2.28101,-0.2954 -2.93914,-0.88623 -0.5609,-0.50854 -0.99467,-1.28259 -1.3013,-2.32215 l 2.08657,0 c 0.11965,0.39639 0.31036,0.72546 0.57212,0.9872 0.36645,0.36647 0.8937,0.5497 1.58175,0.54968 z m -13.95531,2.06413 c 2.35579,10e-6 3.99363,0.43004 4.91352,1.29008 1.03953,0.97973 1.55931,2.61009 1.55932,4.89109 -1e-5,2.31093 -0.51979,3.96747 -1.55932,4.96962 -0.93485,0.86753 -2.57269,1.3013 -4.91352,1.3013 -2.33337,0 -3.97121,-0.43377 -4.91353,-1.3013 -1.04702,-0.96476 -1.57053,-2.59138 -1.57053,-4.87987 0,-2.34084 0.52351,-4.00111 1.57053,-4.98084 0.91241,-0.86004 2.55025,-1.29007 4.91353,-1.29008 z m -3.70197,6.24848 c 0,1.48827 0.26175,2.53155 0.78527,3.12985 0.58333,0.67309 1.55557,1.00963 2.9167,1.00963 1.33121,0 2.29596,-0.33654 2.89427,-1.00963 0.53846,-0.5983 0.80769,-1.64158 0.8077,-3.12985 -1e-5,-1.56305 -0.26177,-2.6325 -0.78527,-3.20838 -0.58335,-0.64316 -1.55558,-0.96474 -2.9167,-0.96475 -1.41349,1e-5 -2.3932,0.32159 -2.93914,0.96475 -0.50856,0.57588 -0.76283,1.64533 -0.76283,3.20838 z m -14.26941,6.06899 0,-12.17163 2.69234,0 0,12.17163 z m 8.33504,0 -4.43114,-4.84622 c -0.45621,-0.50855 -0.68431,-0.98345 -0.68431,-1.4247 0,-0.41132 0.28045,-0.93857 0.84136,-1.58175 l 3.89268,-4.31896 3.18594,0 -4.61064,4.91352 c -0.3889,0.38142 -0.58335,0.71049 -0.58334,0.98719 -10e-6,0.27672 0.14583,0.56091 0.4375,0.85258 l 5.19398,5.41834 z m -15.71655,0 c -1.57802,0 -2.78583,-0.49734 -3.62344,-1.49201 -0.7404,-0.87501 -1.1106,-2.35205 -1.1106,-4.43115 0,-2.34831 0.45995,-3.99737 1.37983,-4.94717 0.87501,-0.86753 2.11648,-1.30129 3.72441,-1.3013 l 5.21641,0 0,2.06413 -4.3414,0 c -1.62289,10e-6 -2.6213,0.64318 -2.99523,1.92951 -0.13462,0.47117 -0.20193,1.23773 -0.20193,2.29971 0,1.1592 0.13088,2.00056 0.39264,2.52407 0.44124,0.86005 1.45834,1.29008 3.05132,1.29008 l 4.36383,0 0,2.06413 z m -13.89922,-11.11713 c 0.33654,-0.80021 0.99467,-1.20033 1.97439,-1.20034 0.96474,10e-6 1.61539,0.40013 1.95194,1.20034 l 3.81416,9.053 1.07693,0 0,2.06413 -13.70851,0 0,-2.06413 1.09938,0 z m -1.1779,9.053 6.29335,0 -2.9167,-7.561 c -0.0897,-0.21687 -0.16454,-0.32531 -0.22436,-0.32532 -0.0898,10e-6 -0.17576,0.10845 -0.25802,0.32532 z m -10.545,-10.25334 c 2.35579,10e-6 3.99363,0.43004 4.91352,1.29008 1.03953,0.97973 1.5593,2.61009 1.55932,4.89109 -2e-5,2.31093 -0.51979,3.96747 -1.55932,4.96962 -0.93485,0.86753 -2.57269,1.3013 -4.91352,1.3013 -2.33337,0 -3.97121,-0.43377 -4.91353,-1.3013 -1.04702,-0.96476 -1.57053,-2.59138 -1.57053,-4.87987 0,-2.34084 0.52351,-4.00111 1.57053,-4.98084 0.9124,-0.86004 2.55024,-1.29007 4.91353,-1.29008 z m -3.70197,6.24848 c -1e-5,1.48827 0.26175,2.53155 0.78526,3.12985 0.58334,0.67309 1.55557,1.00963 2.91671,1.00963 1.3312,0 2.29596,-0.33654 2.89426,-1.00963 0.53846,-0.5983 0.8077,-1.64158 0.80771,-3.12985 -1e-5,-1.56305 -0.26177,-2.6325 -0.78527,-3.20838 -0.58335,-0.64316 -1.55558,-0.96474 -2.9167,-0.96475 -1.41349,1e-5 -2.3932,0.32159 -2.93914,0.96475 -0.50856,0.57588 -0.76284,1.64533 -0.76283,3.20838 z m -12.60914,9.97288 -2.69235,0 0,-14.2021 c 0,-0.64316 0.2281,-1.1405 0.68431,-1.49201 0.3515,-0.25426 0.86005,-0.3814 1.52566,-0.38141 l 4.24044,0 c 1.53313,10e-6 2.72972,0.44125 3.58979,1.32373 0.86004,0.88998 1.29007,2.3932 1.29008,4.50968 -10e-6,2.13892 -0.3216,3.66831 -0.96476,4.5882 -0.81519,1.16668 -2.23989,1.75002 -4.27409,1.75002 l -3.39908,0 z m 3.05132,-5.96802 c 1.06945,0 1.83602,-0.37767 2.29971,-1.13303 0.33653,-0.48611 0.5048,-1.45835 0.50481,-2.9167 -1e-5,-1.24146 -0.10845,-2.11274 -0.32532,-2.61382 -0.39638,-0.91987 -1.17791,-1.37981 -2.34458,-1.37982 l -2.63626,0 c -0.11218,10e-6 -0.23558,0.0524 -0.37019,0.15705 -0.11967,0.12715 -0.1795,0.2655 -0.17949,0.41507 l 0,7.47125 z m -13.70851,-10.25334 c 2.35579,10e-6 3.99363,0.43004 4.91352,1.29008 1.03953,0.97973 1.5593,2.61009 1.55932,4.89109 -2e-5,2.31093 -0.51979,3.96747 -1.55932,4.96962 -0.93485,0.86753 -2.57269,1.3013 -4.91352,1.3013 -2.33337,0 -3.97121,-0.43377 -4.91353,-1.3013 -1.04702,-0.96476 -1.57053,-2.59138 -1.57053,-4.87987 0,-2.34084 0.52351,-4.00111 1.57053,-4.98084 0.9124,-0.86004 2.55024,-1.29007 4.91353,-1.29008 z m -3.70197,6.24848 c -1e-5,1.48827 0.26175,2.53155 0.78526,3.12985 0.58334,0.67309 1.55557,1.00963 2.91671,1.00963 1.3312,0 2.29596,-0.33654 2.89427,-1.00963 0.53845,-0.5983 0.80769,-1.64158 0.8077,-3.12985 -10e-6,-1.56305 -0.26177,-2.6325 -0.78527,-3.20838 -0.58335,-0.64316 -1.55558,-0.96474 -2.9167,-0.96475 -1.41349,1e-5 -2.3932,0.32159 -2.93914,0.96475 -0.50856,0.57588 -0.76284,1.64533 -0.76283,3.20838 z m -16.05309,6.06899 0,-13.7646 c -1e-5,-0.76282 0.18322,-1.32746 0.54968,-1.69393 0.41133,-0.4188 0.93858,-0.6282 1.58175,-0.62822 l 10.75815,0 0,2.41189 -8.66036,0 c -0.58335,2e-5 -0.93485,0.0785 -1.0545,0.23558 -0.0972,0.11968 -0.14584,0.39639 -0.14584,0.83014 l 0,12.60914 z" />
  </g>
  <g
     transform="matrix(0.48013208,0,0,0.48013208,-5.2581018,-463.24118)"
     style="font-style:normal;font-weight:normal;font-size:14.27551365px;line-height:125%;font-family:Sans;letter-spacing:0px;word-spacing:0px;fill:#666766;fill-opacity:1;stroke:none"
     id="text3049">
    <path
       id="path5401"
       d="m 210.69901,1024.8697 1.35227,0 0,9.0128 5.32544,0 0,-9.0128 1.35924,0 0,9.0128 0.93404,0 0,4.0429 -1.19892,0 0,-2.837 -7.77207,0 z m -9.54257,10.2187 0,-10.2187 3.85467,0 c 0.67846,0 1.19659,0.033 1.55442,0.098 0.50186,0.084 0.92241,0.2428 1.26165,0.4774 0.33922,0.2347 0.61223,0.5635 0.81903,0.9864 0.20678,0.4228 0.31018,0.8875 0.31019,1.3941 -1e-5,0.8689 -0.27651,1.6043 -0.82949,2.2061 -0.553,0.6018 -1.5521,0.9027 -2.9973,0.9027 l -2.6209,0 0,4.1544 z m 1.35227,-5.3603 2.64181,0 c 0.87363,0 1.494,-0.1626 1.86112,-0.4879 0.3671,-0.3253 0.55065,-0.7831 0.55066,-1.3732 -1e-5,-0.4275 -0.10805,-0.7935 -0.32412,-1.0979 -0.2161,-0.3043 -0.50072,-0.5053 -0.85389,-0.6029 -0.2277,-0.06 -0.64826,-0.091 -1.26165,-0.091 l -2.61393,0 z m -9.45892,8.1973 0,-10.2397 1.14316,0 0,0.962 c 0.26952,-0.3764 0.5739,-0.6587 0.91313,-0.8469 0.33923,-0.1882 0.75048,-0.2823 1.23377,-0.2823 0.63199,0 1.18962,0.1626 1.67291,0.4879 0.48328,0.3253 0.84807,0.7842 1.09437,1.3767 0.24628,0.5924 0.36942,1.2419 0.36943,1.9482 -1e-5,0.7575 -0.13593,1.4394 -0.40777,2.0458 -0.27185,0.6065 -0.66685,1.0712 -1.18498,1.3941 -0.51814,0.323 -1.063,0.4845 -1.63457,0.4845 -0.41824,0 -0.79348,-0.088 -1.12573,-0.2649 -0.33227,-0.1766 -0.60527,-0.3996 -0.81903,-0.6692 l 0,3.6038 z m 1.13619,-6.4965 c 0,0.9526 0.19285,1.6566 0.57855,2.112 0.38569,0.4554 0.85271,0.6831 1.40106,0.6831 0.55763,0 1.03511,-0.2358 1.43243,-0.7075 0.39731,-0.4716 0.59597,-1.2024 0.59598,-2.1922 -10e-6,-0.9433 -0.19402,-1.6496 -0.58204,-2.119 -0.38803,-0.4693 -0.85156,-0.704 -1.39061,-0.704 -0.5344,0 -1.00723,0.2498 -1.41849,0.7493 -0.41125,0.4996 -0.61688,1.2257 -0.61688,2.1783 z m -4.25198,2.7463 c -0.46471,0.395 -0.91198,0.6739 -1.34182,0.8365 -0.42985,0.1626 -0.89106,0.244 -1.38364,0.244 -0.81322,0 -1.43824,-0.1987 -1.87505,-0.596 -0.43682,-0.3973 -0.65523,-0.905 -0.65523,-1.5231 0,-0.3624 0.0825,-0.6935 0.24746,-0.9932 0.16496,-0.2998 0.38105,-0.5403 0.64825,-0.7215 0.2672,-0.1812 0.56809,-0.3183 0.90267,-0.4112 0.24629,-0.065 0.61805,-0.1278 1.11528,-0.1882 1.01304,-0.1209 1.75887,-0.2649 2.23752,-0.4322 0.005,-0.1719 0.007,-0.2812 0.007,-0.3276 -1e-5,-0.5112 -0.1185,-0.8713 -0.35549,-1.0804 -0.32065,-0.2835 -0.79697,-0.4252 -1.42895,-0.4252 -0.59017,0 -1.02582,0.1034 -1.30696,0.3101 -0.28115,0.2068 -0.4891,0.5728 -0.62386,1.0979 l -1.2268,-0.1673 c 0.11153,-0.5251 0.29508,-0.9491 0.55067,-1.2721 0.25558,-0.323 0.62501,-0.5716 1.1083,-0.7459 0.48328,-0.1742 1.04324,-0.2613 1.67988,-0.2613 0.63199,0 1.14548,0.074 1.54047,0.223 0.39499,0.1487 0.68543,0.3358 0.87131,0.5611 0.18588,0.2254 0.31599,0.51 0.39035,0.8539 0.0418,0.2138 0.0627,0.5995 0.0627,1.1571 l 0,1.6729 c 0,1.1664 0.0267,1.9041 0.0802,2.2131 0.0534,0.3091 0.15916,0.6053 0.31716,0.8888 l -1.31045,0 c -0.13012,-0.2603 -0.21376,-0.5646 -0.25093,-0.9132 z m -0.10456,-2.8021 c -0.45541,0.1859 -1.13852,0.3439 -2.04932,0.474 -0.51582,0.074 -0.8806,0.158 -1.09436,0.2509 -0.21376,0.093 -0.37873,0.2289 -0.4949,0.4078 -0.11618,0.1789 -0.17427,0.3776 -0.17427,0.596 0,0.3346 0.12663,0.6134 0.37989,0.8365 0.25326,0.223 0.62386,0.3345 1.11179,0.3345 0.48329,0 0.91313,-0.1057 1.28954,-0.3171 0.3764,-0.2115 0.65289,-0.5007 0.82948,-0.8678 0.13476,-0.2835 0.20214,-0.7017 0.20215,-1.2547 z m -7.59084,0.1325 1.35227,0.3415 c -0.28347,1.1106 -0.79348,1.9576 -1.53002,2.5407 -0.73655,0.5832 -1.6369,0.8748 -2.70105,0.8748 -1.10134,0 -1.99704,-0.2242 -2.68712,-0.6726 -0.69007,-0.4484 -1.21518,-1.0979 -1.57532,-1.9483 -0.36014,-0.8503 -0.54021,-1.7635 -0.54021,-2.7393 0,-1.0642 0.2033,-1.9924 0.60991,-2.7847 0.40661,-0.7923 0.98516,-1.3941 1.73565,-1.8054 0.75048,-0.4112 1.57648,-0.6169 2.478,-0.6169 1.02233,0 1.88202,0.2603 2.57907,0.7807 0.69704,0.5205 1.18265,1.2524 1.45683,2.1957 l -1.33136,0.3137 c -0.237,-0.7435 -0.58088,-1.2849 -1.03163,-1.6241 -0.45076,-0.3393 -1.01769,-0.5089 -1.70079,-0.5089 -0.78535,0 -1.44173,0.1882 -1.96916,0.5646 -0.52743,0.3764 -0.89803,0.8818 -1.11179,1.5161 -0.21376,0.6343 -0.32064,1.2884 -0.32064,1.9622 0,0.869 0.12663,1.6276 0.37989,2.2758 0.25326,0.6483 0.64709,1.1327 1.1815,1.4534 0.53439,0.3206 1.11294,0.4809 1.73564,0.4809 0.75745,0 1.39874,-0.2184 1.92385,-0.6552 0.5251,-0.4368 0.88059,-1.085 1.06648,-1.9447 z" />
  </g>
</svg>
