<?xml version="1.0" encoding="UTF-8" standalone="no"?>
<svg
   xmlns:dc="http://purl.org/dc/elements/1.1/"
   xmlns:cc="http://creativecommons.org/ns#"
   xmlns:rdf="http://www.w3.org/1999/02/22-rdf-syntax-ns#"
   xmlns:svg="http://www.w3.org/2000/svg"
   xmlns="http://www.w3.org/2000/svg"
   xmlns:sodipodi="http://sodipodi.sourceforge.net/DTD/sodipodi-0.dtd"
   xmlns:inkscape="http://www.inkscape.org/namespaces/inkscape"
   width="241px"
   height="146px"
   viewBox="0 0 241 146"
   version="1.1"
   id="svg2"
   inkscape:version="0.91 r13725"
   sodipodi:docname="payler.svg">
  <metadata
     id="metadata57">
    <rdf:RDF>
      <cc:Work
         rdf:about="">
        <dc:format>image/svg+xml</dc:format>
        <dc:type
           rdf:resource="http://purl.org/dc/dcmitype/StillImage" />
        <dc:title>images/logo/payler big</dc:title>
      </cc:Work>
    </rdf:RDF>
  </metadata>
  <sodipodi:namedview
     pagecolor="#ffffff"
     bordercolor="#666666"
     borderopacity="1"
     objecttolerance="10"
     gridtolerance="10"
     guidetolerance="10"
     inkscape:pageopacity="0"
     inkscape:pageshadow="2"
     inkscape:window-width="659"
     inkscape:window-height="480"
     id="namedview55"
     showgrid="false"
     inkscape:zoom="1.6164384"
     inkscape:cx="125.89509"
     inkscape:cy="73"
     inkscape:window-x="0"
     inkscape:window-y="0"
     inkscape:window-maximized="0"
     inkscape:current-layer="svg2" />
  <!-- Generator: Sketch 41.1 (35376) - http://www.bohemiancoding.com/sketch -->
  <title
     id="title4">images/logo/payler big</title>
  <desc
     id="desc6">Created with Sketch.</desc>
  <defs
     id="defs8" />
  <g
     id="pages"
     transform="translate(1.2372881,0.61864407)"
     style="fill:#263c54;fill-rule:evenodd;stroke:none;stroke-width:1;fill-opacity:1">
    <g
       id="main-screen"
       transform="translate(-520,-109)"
       style="fill:#263c54;fill-opacity:1">
      <g
         id="images/logo/payler-big"
         transform="translate(520.28571,109.16763)"
         style="fill:#263c54;fill-opacity:1">
        <path
           style="fill:#263c54;fill-opacity:1"
           d="m 9.5038437,9.4000495 112.8414363,0 0,18.7397295 9.40338,0 0,-28.10939972 -131.64820397,0 0,131.17616072 131.64820397,0 0,-9.36967 -122.2448163,0 z"
           id="line" />
        <path
           d="m 106.46736,103.15323 c 0,0 3.56482,2.60482 8.39727,2.60482 5.94136,0 11.80377,-3.15749 14.57628,-10.498373 l 17.9828,-46.335409 -10.93251,0 -7.92195,23.36517 c -0.63361,2.131223 -1.52287,4.41629 -1.52287,4.41629 0,0 -0.69537,-2.443195 -1.48768,-4.574418 l -8.47661,-23.207042 -11.32847,0 17.03218,39.625873 -1.50528,3.552038 c -1.50528,3.552039 -4.27778,5.209657 -7.05068,5.209657 -2.21824,0 -4.43648,-1.657618 -4.43648,-1.657618 l -3.326,7.499012 0,0 z"
           id="Shape"
           inkscape:connector-curvature="0"
           style="fill:#263c54;fill-opacity:1" />
        <path
           d="m 152.01889,76.630948 c 0,11.524651 6.89199,12.945467 12.4374,12.945467 1.34658,0 2.45589,-0.157739 3.16886,-0.236803 l 0,-8.761695 c -0.55466,0.07906 -1.10893,0.07906 -1.50528,0.07906 -2.6142,0 -4.11948,-1.104949 -4.11948,-5.525523 l 0,-41.993898 -9.9815,0 0,43.493388 0,0 z"
           id="path15"
           inkscape:connector-curvature="0"
           style="fill:#263c54;fill-opacity:1" />
        <path
           d="m 79.828925,77.183617 c 0,-5.683262 8.55557,-6.393669 13.625668,-6.393669 l 1.742931,0 0,1.104949 c 0,4.894179 -3.644169,10.577441 -9.268534,10.577441 -4.04013,0 -6.100065,-2.604829 -6.100065,-5.288721 l 0,0 z m 3.327166,12.945467 c 4.894593,0 9.280652,-2.405026 11.907753,-5.96797 0.116873,-0.158518 0.340065,-0.482563 0.340065,-0.482563 l 0.426449,0.05219 c 0,0 7.82e-4,1.393552 7.82e-4,2.057222 l 0,3.3943 9.34788,0 0,-25.180526 c 0,-10.1829 -6.258368,-16.0239 -16.794525,-16.0239 -6.020717,0 -12.516743,2.288962 -15.843909,4.972854 l 3.413942,6.577892 c 3.248208,-2.210287 7.597524,-3.262656 11.558306,-3.262656 4.198827,0 7.604951,1.815356 7.604951,7.104077 l 0,0.552669 -1.742932,0 c -8.951921,0 -23.528208,2.052159 -23.528208,14.12948 7.82e-4,7.34088 6.021498,12.076931 13.309446,12.076931 l 0,0 z"
           id="path17"
           inkscape:connector-curvature="0"
           style="fill:#263c54;fill-opacity:1" />
        <path
           d="m 181.09251,64.080022 c 0.95062,-5.130982 4.59479,-8.524892 9.74384,-8.524892 4.51544,0 8.0013,3.157497 8.08026,8.524892 l -17.8241,0 0,0 z m 11.16977,26.049062 c 5.78306,0 11.89603,-3.124392 16.0155,-6.755494 l -3.73641,-6.189973 c -3.24821,2.604828 -7.44665,4.420574 -11.56613,4.420574 -6.10006,0 -11.48677,-3.631102 -12.12078,-10.656505 l 28.05733,-0.05414 c 0,0 0.0657,-2.550691 0.0657,-3.813768 0,-10.656505 -6.33772,-19.102334 -17.90384,-19.102334 -12.12079,0 -20.59701,8.683021 -20.59701,21.075819 3.9e-4,11.445587 8.39766,21.075818 21.78567,21.075818 l 0,0 z"
           id="path19"
           inkscape:connector-curvature="0"
           style="fill:#263c54;fill-opacity:1" />
        <path
           d="m 215.43948,89.250422 10.06085,0 0,-16.260703 c 0,-7.577682 3.64416,-14.682149 11.88312,-14.682149 0.87127,0 2.05955,0.07906 2.4559,0.157739 l 0,-9.867034 c -0.63362,-0.07906 -1.26762,-0.157738 -1.90124,-0.157738 -5.26241,0 -9.74384,3.528669 -12.01681,8.14593 -0.041,0.08374 -0.15869,0.315867 -0.4757,0.315867 l -0.2443,0 0,-7.898612 -9.76182,-0.01052 0,40.257216 0,0 z"
           id="path21"
           inkscape:connector-curvature="0"
           style="fill:#263c54;fill-opacity:1" />
        <path
           d="m 38.599348,61.133622 0,-19.193472 9.809903,0 c 5.82215,0 9.331466,3.727693 9.331466,9.517283 0,5.869042 -3.509316,9.676189 -9.490945,9.676189 l -9.650424,0 0,0 z m -10.288338,28.314265 10.288338,0 0,-19.431442 11.564561,0 c 10.607296,0 18.024625,-7.613904 18.024625,-18.559012 0,-10.945109 -7.417329,-18.321041 -18.024625,-18.321041 l -21.852899,0 0,56.311495 0,0 z"
           id="path23"
           inkscape:connector-curvature="0"
           style="fill:#263c54;fill-opacity:1" />
        <path
           style="fill:#263c54;fill-opacity:1"
           d="m 162.08834,121.89412 0,9.31242 -1.69798,0 0,-7.85655 -4.17303,0 0,7.85655 -1.69798,0 0,-9.31242 3.9e-4,0 z"
           id="polygon25" />
        <path
           d="m 170.1987,121.73639 c 2.75101,0 4.83088,2.08526 4.83088,4.74812 0,2.74115 -2.07987,4.87899 -4.83088,4.87899 -2.75101,0 -4.83088,-2.13784 -4.83088,-4.87899 -3.9e-4,-2.66247 2.07987,-4.74812 4.83088,-4.74812 l 0,0 z m 0,8.0801 c 1.71127,0 3.08013,-1.44301 3.08013,-3.33159 0,-1.8099 -1.36886,-3.20073 -3.08013,-3.20073 -1.71127,0 -3.08013,1.39044 -3.08013,3.20073 0,1.88858 1.36886,3.33159 3.08013,3.33159 l 0,0 z"
           id="path27"
           inkscape:connector-curvature="0"
           style="fill:#263c54;fill-opacity:1" />
        <path
           style="fill:#263c54;fill-opacity:1"
           d="m 180.00664,121.89412 0,3.94814 4.27818,0 0,-3.94814 1.68508,0 0,9.31242 -1.68508,0 0,-3.90841 -4.27818,0 0,3.90841 -1.69798,0 0,-9.31242 z"
           id="polygon29" />
        <path
           d="m 190.86762,127.92753 c 0.21069,-0.35404 0.30254,-0.48529 0.30254,-0.48529 l 0,-0.0261 c -1.14527,-0.49814 -1.6585,-1.5213 -1.6585,-2.7022 0,-1.31137 0.65824,-2.19042 1.56665,-2.57094 0.39478,-0.17059 0.85524,-0.24927 1.77693,-0.24927 l 3.02737,0 0,9.31242 -1.69799,0 0,-3.4757 -1.36886,0 -2.02749,3.4757 -1.89576,0 1.97511,-3.27862 0,0 z m 3.317,-1.61361 0,-2.96393 -1.19765,0 c -0.60547,0 -0.93498,0.0915 -1.17147,0.23603 -0.38188,0.23563 -0.57928,0.69482 -0.57928,1.19336 0,0.98343 0.56599,1.53415 1.4744,1.53415 l 1.474,0 0,3.9e-4 z"
           id="path31"
           inkscape:connector-curvature="0"
           style="fill:#263c54;fill-opacity:1" />
        <path
           style="fill:#263c54;fill-opacity:1"
           d="m 198.76612,123.34999 0,-1.45587 7.81877,0 0,1.45587 -3.06684,0 0,7.85655 -1.68509,0 0,-7.85655 4e-4,0 z"
           id="polygon33" />
        <path
           style="fill:#263c54;fill-opacity:1"
           d="m 211.18046,121.89412 0,3.94814 4.27817,0 0,-3.94814 1.68508,0 0,9.31242 -1.68508,0 0,-3.90841 -4.27817,0 0,3.90841 -1.69798,0 0,-9.31242 0,0 z"
           id="polygon35" />
        <path
           d="m 220.97511,121.89412 1.69798,0 0,3.26617 1.73746,0 c 1.71127,0 2.92261,1.18011 2.92261,3.0426 0,1.78381 -1.18476,3.00365 -2.88274,3.00365 l -3.47531,0 0,-9.31242 0,0 z m 3.17199,7.85655 c 0.93498,0 1.46111,-0.6033 1.46111,-1.54778 0,-0.95734 -0.55271,-1.58713 -1.48769,-1.58713 l -1.44782,0 0,3.13491 1.4744,0 0,0 z m 4.39661,-7.85655 1.68508,0 0,9.31242 -1.68508,0 0,-9.31242 0,0 z"
           id="path37"
           inkscape:connector-curvature="0"
           style="fill:#263c54;fill-opacity:1" />
        <path
           style="fill:#263c54;fill-opacity:1"
           d="m 239.66853,121.89412 0,1.45587 -3.89667,0 0,2.43969 3.14619,0 0,1.45587 -3.14619,0 0,2.50512 4.10697,0 0,1.45587 -5.80456,0 0,-9.31242 z"
           id="polygon39" />
        <path
           style="fill:#263c54;fill-opacity:1"
           d="m 175.84378,135.94882 0,9.31242 -1.69798,0 0,-7.85655 -4.17303,0 0,7.85655 -1.69798,0 0,-9.31242 3.9e-4,0 z"
           id="polygon41" />
        <path
           d="m 180.74189,138.49328 0,-2.54446 5.77876,0 0,9.31242 -1.69837,0 0,-7.85655 -2.46176,0 0,1.11469 c 0,4.5121 -1.03974,6.75471 -3.63283,6.84663 l 0,-1.54779 c 1.38254,-0.18344 2.0142,-1.71798 2.0142,-5.32494 l 0,0 z"
           id="path43"
           inkscape:connector-curvature="0"
           style="fill:#263c54;fill-opacity:1" />
        <path
           d="m 192.60274,135.94882 1.79022,0 3.27792,9.31242 -1.73746,0 -0.80326,-2.38711 -3.27752,0 -0.78997,2.38711 -1.73746,0 3.27753,-9.31242 0,0 z m 2.10645,5.54812 -0.82945,-2.49188 c -0.15753,-0.52463 -0.36821,-1.44263 -0.36821,-1.44263 l -0.0262,0 c 0,0 -0.21068,0.918 -0.3686,1.44263 l -0.84234,2.49188 2.43479,0 0,0 z"
           id="path45"
           inkscape:connector-curvature="0"
           style="fill:#263c54;fill-opacity:1" />
        <path
           style="fill:#263c54;fill-opacity:1"
           d="m 198.73798,137.40469 0,-1.45587 7.81876,0 0,1.45587 -3.06684,0 0,7.85655 -1.68508,0 0,-7.85655 3.9e-4,0 z"
           id="polygon47" />
        <path
           style="fill:#263c54;fill-opacity:1"
           d="m 215.0486,135.94882 0,1.45587 -3.89668,0 0,2.43969 3.14619,0 0,1.45587 -3.14619,0 0,2.50512 4.10697,0 0,1.45587 -5.80495,0 0,-9.31242 3.9e-4,0 z"
           id="polygon49" />
        <path
           style="fill:#263c54;fill-opacity:1"
           d="m 220.18319,140.38225 -2.43479,-4.43343 1.82971,0 2.00091,3.7904 1.09251,0 0,-3.7904 1.68508,0 0,3.7904 1.09251,0 2.00091,-3.7904 1.82971,0 -2.44847,4.43343 0,0.0261 2.64586,4.85289 -1.90866,0 -2.11935,-4.06576 -1.09251,0 0,4.06576 -1.68508,0 0,-4.06576 -1.09251,0 -2.11935,4.06576 -1.90905,0 2.63257,-4.85289 z"
           id="polygon51" />
        <path
           d="m 232.36534,135.94882 1.69798,0 0,5.37792 c 0,0.55072 -0.0918,1.44262 -0.0918,1.44262 l 0.0262,0 c 0,0 0.44756,-0.90476 0.78997,-1.45587 l 3.52769,-5.36428 1.68469,0 0,9.31242 -1.68508,0 0,-5.36506 c 0,-0.55072 0.0918,-1.44262 0.0918,-1.44262 l -0.0262,0 c 0,0 -0.43427,0.8919 -0.77668,1.44262 l -3.55388,5.36428 -1.68508,0 0,-9.31203 3.9e-4,0 z"
           id="path53"
           inkscape:connector-curvature="0"
           style="fill:#263c54;fill-opacity:1" />
      </g>
    </g>
  </g>
</svg>
